<svg width="15" height="15" viewBox="0 0 15 15" fill="none" xmlns="http://www.w3.org/2000/svg">
<rect x="0.5" y="0.5" width="14" height="14" stroke="#808080"/>
<line x1="3" y1="2.5" x2="12" y2="2.5" stroke="black"/>
<line y1="-0.5" x2="9" y2="-0.5" transform="matrix(1 0 0 -1 3 8)" stroke="black"/>
<line y1="-0.5" x2="9" y2="-0.5" transform="matrix(1 0 0 -1 3 10)" stroke="black"/>
<line y1="-0.5" x2="9" y2="-0.5" transform="matrix(1 0 0 -1 3 12)" stroke="black"/>
<line y1="-0.5" x2="9" y2="-0.5" transform="matrix(1 0 0 -1 3 11)" stroke="black"/>
<line x1="3" y1="3.5" x2="12" y2="3.5" stroke="black"/>
<line y1="-0.5" x2="9" y2="-0.5" transform="matrix(1 0 0 -1 3 7)" stroke="black"/>
<line x1="3" y1="4.5" x2="12" y2="4.5" stroke="black"/>
<line y1="-0.5" x2="9" y2="-0.5" transform="matrix(1 0 0 -1 3 6)" stroke="black"/>
</svg>
